<mxfile host="Electron" agent="Mozilla/5.0 (Windows NT 10.0; Win64; x64) AppleWebKit/537.36 (KHTML, like Gecko) draw.io/28.0.6 Chrome/138.0.7204.100 Electron/37.2.3 Safari/537.36" version="28.0.6">
  <diagram name="Page-1" id="IRP7fcskdjtLhyDf07wi">
    <mxGraphModel dx="692" dy="595" grid="1" gridSize="10" guides="1" tooltips="1" connect="1" arrows="1" fold="1" page="1" pageScale="1" pageWidth="850" pageHeight="1100" math="0" shadow="0">
      <root>
        <mxCell id="0" />
        <mxCell id="1" parent="0" />
        <mxCell id="LJ6CT2J7k7fD3QJaMvCB-1" value="" style="rounded=0;whiteSpace=wrap;html=1;fillColor=none;" vertex="1" parent="1">
          <mxGeometry x="20" y="90" width="120" height="480" as="geometry" />
        </mxCell>
        <mxCell id="LJ6CT2J7k7fD3QJaMvCB-2" value="" style="image;aspect=fixed;html=1;points=[];align=center;fontSize=12;image=img/lib/azure2/general/Folder_Blank.svg;" vertex="1" parent="1">
          <mxGeometry x="59.28" y="225" width="50" height="40.58" as="geometry" />
        </mxCell>
        <mxCell id="LJ6CT2J7k7fD3QJaMvCB-3" value="" style="image;aspect=fixed;html=1;points=[];align=center;fontSize=12;image=img/lib/azure2/general/File.svg;" vertex="1" parent="1">
          <mxGeometry x="84.93" y="240" width="24.35" height="30" as="geometry" />
        </mxCell>
        <mxCell id="LJ6CT2J7k7fD3QJaMvCB-4" value="" style="image;aspect=fixed;html=1;points=[];align=center;fontSize=12;image=img/lib/azure2/general/Folder_Blank.svg;" vertex="1" parent="1">
          <mxGeometry x="59.28" y="430" width="49.28" height="40" as="geometry" />
        </mxCell>
        <mxCell id="LJ6CT2J7k7fD3QJaMvCB-5" value="" style="image;aspect=fixed;html=1;points=[];align=center;fontSize=12;image=img/lib/azure2/general/File.svg;" vertex="1" parent="1">
          <mxGeometry x="89.93" y="450" width="24.35" height="30" as="geometry" />
        </mxCell>
        <mxCell id="LJ6CT2J7k7fD3QJaMvCB-6" value="&lt;b&gt;CRM&lt;/b&gt;&lt;div&gt;&lt;b&gt;&lt;br&gt;&lt;/b&gt;&lt;/div&gt;" style="text;html=1;align=center;verticalAlign=middle;whiteSpace=wrap;rounded=0;" vertex="1" parent="1">
          <mxGeometry x="54.27999999999997" y="270" width="60" height="30" as="geometry" />
        </mxCell>
        <mxCell id="LJ6CT2J7k7fD3QJaMvCB-7" value="&lt;b&gt;ERP&lt;/b&gt;&lt;div&gt;&lt;b&gt;&lt;br&gt;&lt;/b&gt;&lt;/div&gt;" style="text;html=1;align=center;verticalAlign=middle;whiteSpace=wrap;rounded=0;" vertex="1" parent="1">
          <mxGeometry x="54.64" y="480" width="60" height="30" as="geometry" />
        </mxCell>
        <mxCell id="LJ6CT2J7k7fD3QJaMvCB-9" value="&lt;b&gt;&lt;font style=&quot;font-size: 14px;&quot;&gt;Sources&lt;/font&gt;&lt;/b&gt;" style="text;html=1;align=center;verticalAlign=middle;resizable=0;points=[];autosize=1;strokeColor=none;fillColor=default;" vertex="1" parent="1">
          <mxGeometry x="44.639999999999986" y="70" width="80" height="30" as="geometry" />
        </mxCell>
        <mxCell id="LJ6CT2J7k7fD3QJaMvCB-11" value="" style="rounded=0;whiteSpace=wrap;html=1;fillColor=none;" vertex="1" parent="1">
          <mxGeometry x="210" y="120" width="140" height="450" as="geometry" />
        </mxCell>
        <mxCell id="LJ6CT2J7k7fD3QJaMvCB-12" value="" style="rounded=1;whiteSpace=wrap;html=1;fillColor=#ffe6cc;strokeColor=#d79b00;" vertex="1" parent="1">
          <mxGeometry x="220" y="175" width="120" height="20" as="geometry" />
        </mxCell>
        <mxCell id="LJ6CT2J7k7fD3QJaMvCB-13" value="" style="rounded=1;whiteSpace=wrap;html=1;fillColor=#ffe6cc;strokeColor=#d79b00;" vertex="1" parent="1">
          <mxGeometry x="220" y="230" width="120" height="20" as="geometry" />
        </mxCell>
        <mxCell id="LJ6CT2J7k7fD3QJaMvCB-14" value="" style="rounded=1;whiteSpace=wrap;html=1;fillColor=#ffe6cc;strokeColor=#d79b00;" vertex="1" parent="1">
          <mxGeometry x="220" y="290.58" width="120" height="20" as="geometry" />
        </mxCell>
        <mxCell id="LJ6CT2J7k7fD3QJaMvCB-15" value="" style="rounded=1;whiteSpace=wrap;html=1;fillColor=#ffe6cc;strokeColor=#d79b00;" vertex="1" parent="1">
          <mxGeometry x="220" y="390" width="120" height="20" as="geometry" />
        </mxCell>
        <mxCell id="LJ6CT2J7k7fD3QJaMvCB-16" value="" style="rounded=1;whiteSpace=wrap;html=1;fillColor=#ffe6cc;strokeColor=#d79b00;" vertex="1" parent="1">
          <mxGeometry x="220" y="440" width="120" height="20" as="geometry" />
        </mxCell>
        <mxCell id="LJ6CT2J7k7fD3QJaMvCB-17" value="" style="rounded=1;whiteSpace=wrap;html=1;fillColor=#ffe6cc;strokeColor=#d79b00;" vertex="1" parent="1">
          <mxGeometry x="220" y="500" width="120" height="20" as="geometry" />
        </mxCell>
        <mxCell id="LJ6CT2J7k7fD3QJaMvCB-19" value="" style="rounded=1;whiteSpace=wrap;html=1;fillColor=#ffe6cc;strokeColor=#d79b00;" vertex="1" parent="1">
          <mxGeometry x="210" y="70" width="140" height="40" as="geometry" />
        </mxCell>
        <mxCell id="LJ6CT2J7k7fD3QJaMvCB-20" value="&lt;b&gt;&lt;font style=&quot;font-size: 15px;&quot;&gt;Bronze layer&lt;/font&gt;&lt;/b&gt;" style="text;html=1;align=center;verticalAlign=middle;whiteSpace=wrap;rounded=0;" vertex="1" parent="1">
          <mxGeometry x="220" y="70" width="120" height="30" as="geometry" />
        </mxCell>
        <mxCell id="LJ6CT2J7k7fD3QJaMvCB-21" value="&lt;b&gt;crm_sales_details&lt;/b&gt;" style="text;html=1;align=center;verticalAlign=middle;whiteSpace=wrap;rounded=0;" vertex="1" parent="1">
          <mxGeometry x="250" y="170" width="60" height="30" as="geometry" />
        </mxCell>
        <mxCell id="LJ6CT2J7k7fD3QJaMvCB-22" value="&lt;b&gt;crm_cust_info&lt;/b&gt;" style="text;html=1;align=center;verticalAlign=middle;whiteSpace=wrap;rounded=0;" vertex="1" parent="1">
          <mxGeometry x="250" y="225" width="60" height="30" as="geometry" />
        </mxCell>
        <mxCell id="LJ6CT2J7k7fD3QJaMvCB-23" value="&lt;b&gt;crm_prd_info&lt;/b&gt;" style="text;html=1;align=center;verticalAlign=middle;whiteSpace=wrap;rounded=0;" vertex="1" parent="1">
          <mxGeometry x="250" y="285.58" width="60" height="30" as="geometry" />
        </mxCell>
        <mxCell id="LJ6CT2J7k7fD3QJaMvCB-24" value="&lt;b&gt;erp_cust_az12&lt;/b&gt;" style="text;html=1;align=center;verticalAlign=middle;whiteSpace=wrap;rounded=0;" vertex="1" parent="1">
          <mxGeometry x="250" y="385" width="60" height="30" as="geometry" />
        </mxCell>
        <mxCell id="LJ6CT2J7k7fD3QJaMvCB-26" value="&lt;b&gt;erp_loc_a101&lt;/b&gt;" style="text;html=1;align=center;verticalAlign=middle;whiteSpace=wrap;rounded=0;" vertex="1" parent="1">
          <mxGeometry x="250" y="435" width="60" height="30" as="geometry" />
        </mxCell>
        <mxCell id="LJ6CT2J7k7fD3QJaMvCB-27" value="&lt;b&gt;erp_px_cat_g1v2&lt;/b&gt;" style="text;html=1;align=center;verticalAlign=middle;whiteSpace=wrap;rounded=0;" vertex="1" parent="1">
          <mxGeometry x="250" y="495" width="60" height="30" as="geometry" />
        </mxCell>
        <mxCell id="LJ6CT2J7k7fD3QJaMvCB-33" style="edgeStyle=orthogonalEdgeStyle;rounded=0;orthogonalLoop=1;jettySize=auto;html=1;entryX=-0.003;entryY=0.16;entryDx=0;entryDy=0;entryPerimeter=0;" edge="1" parent="1" source="LJ6CT2J7k7fD3QJaMvCB-2" target="LJ6CT2J7k7fD3QJaMvCB-11">
          <mxGeometry relative="1" as="geometry" />
        </mxCell>
        <mxCell id="LJ6CT2J7k7fD3QJaMvCB-34" style="edgeStyle=orthogonalEdgeStyle;rounded=0;orthogonalLoop=1;jettySize=auto;html=1;entryX=0.014;entryY=0.277;entryDx=0;entryDy=0;entryPerimeter=0;" edge="1" parent="1" source="LJ6CT2J7k7fD3QJaMvCB-2" target="LJ6CT2J7k7fD3QJaMvCB-11">
          <mxGeometry relative="1" as="geometry" />
        </mxCell>
        <mxCell id="LJ6CT2J7k7fD3QJaMvCB-35" style="edgeStyle=orthogonalEdgeStyle;rounded=0;orthogonalLoop=1;jettySize=auto;html=1;entryX=-0.003;entryY=0.408;entryDx=0;entryDy=0;entryPerimeter=0;" edge="1" parent="1" source="LJ6CT2J7k7fD3QJaMvCB-2" target="LJ6CT2J7k7fD3QJaMvCB-11">
          <mxGeometry relative="1" as="geometry" />
        </mxCell>
        <mxCell id="LJ6CT2J7k7fD3QJaMvCB-36" style="edgeStyle=orthogonalEdgeStyle;rounded=0;orthogonalLoop=1;jettySize=auto;html=1;entryX=0.003;entryY=0.625;entryDx=0;entryDy=0;entryPerimeter=0;" edge="1" parent="1" source="LJ6CT2J7k7fD3QJaMvCB-4" target="LJ6CT2J7k7fD3QJaMvCB-11">
          <mxGeometry relative="1" as="geometry" />
        </mxCell>
        <mxCell id="LJ6CT2J7k7fD3QJaMvCB-37" style="edgeStyle=orthogonalEdgeStyle;rounded=0;orthogonalLoop=1;jettySize=auto;html=1;entryX=-0.014;entryY=0.734;entryDx=0;entryDy=0;entryPerimeter=0;" edge="1" parent="1" source="LJ6CT2J7k7fD3QJaMvCB-4" target="LJ6CT2J7k7fD3QJaMvCB-11">
          <mxGeometry relative="1" as="geometry" />
        </mxCell>
        <mxCell id="LJ6CT2J7k7fD3QJaMvCB-38" style="edgeStyle=orthogonalEdgeStyle;rounded=0;orthogonalLoop=1;jettySize=auto;html=1;entryX=-0.009;entryY=0.869;entryDx=0;entryDy=0;entryPerimeter=0;" edge="1" parent="1" source="LJ6CT2J7k7fD3QJaMvCB-4" target="LJ6CT2J7k7fD3QJaMvCB-11">
          <mxGeometry relative="1" as="geometry" />
        </mxCell>
        <mxCell id="LJ6CT2J7k7fD3QJaMvCB-39" value="" style="rounded=0;whiteSpace=wrap;html=1;fillColor=none;" vertex="1" parent="1">
          <mxGeometry x="390" y="120" width="140" height="450" as="geometry" />
        </mxCell>
        <mxCell id="LJ6CT2J7k7fD3QJaMvCB-40" value="" style="rounded=0;whiteSpace=wrap;html=1;fillColor=none;" vertex="1" parent="1">
          <mxGeometry x="560" y="120" width="140" height="450" as="geometry" />
        </mxCell>
        <mxCell id="LJ6CT2J7k7fD3QJaMvCB-44" value="" style="rounded=1;whiteSpace=wrap;html=1;fillColor=#f5f5f5;strokeColor=#666666;gradientColor=#b3b3b3;" vertex="1" parent="1">
          <mxGeometry x="390" y="70" width="140" height="40" as="geometry" />
        </mxCell>
        <mxCell id="LJ6CT2J7k7fD3QJaMvCB-45" value="" style="rounded=1;whiteSpace=wrap;html=1;fillColor=#ffcd28;strokeColor=#d79b00;gradientColor=#ffa500;" vertex="1" parent="1">
          <mxGeometry x="560" y="70" width="140" height="40" as="geometry" />
        </mxCell>
        <mxCell id="LJ6CT2J7k7fD3QJaMvCB-46" value="&lt;span style=&quot;font-size: 15px;&quot;&gt;&lt;b&gt;Silver Layer&lt;/b&gt;&lt;/span&gt;" style="text;html=1;align=center;verticalAlign=middle;whiteSpace=wrap;rounded=0;" vertex="1" parent="1">
          <mxGeometry x="400" y="75" width="120" height="30" as="geometry" />
        </mxCell>
        <mxCell id="LJ6CT2J7k7fD3QJaMvCB-47" value="&lt;span style=&quot;font-size: 15px;&quot;&gt;&lt;b&gt;Gold Layer&lt;/b&gt;&lt;/span&gt;" style="text;html=1;align=center;verticalAlign=middle;whiteSpace=wrap;rounded=0;" vertex="1" parent="1">
          <mxGeometry x="570" y="75" width="120" height="30" as="geometry" />
        </mxCell>
        <mxCell id="LJ6CT2J7k7fD3QJaMvCB-48" value="" style="rounded=1;whiteSpace=wrap;html=1;fillColor=#f5f5f5;strokeColor=#666666;gradientColor=#b3b3b3;" vertex="1" parent="1">
          <mxGeometry x="400" y="170" width="120" height="20" as="geometry" />
        </mxCell>
        <mxCell id="LJ6CT2J7k7fD3QJaMvCB-49" value="" style="rounded=1;whiteSpace=wrap;html=1;fillColor=#f5f5f5;strokeColor=#666666;gradientColor=#b3b3b3;" vertex="1" parent="1">
          <mxGeometry x="400" y="230" width="120" height="20" as="geometry" />
        </mxCell>
        <mxCell id="LJ6CT2J7k7fD3QJaMvCB-79" style="edgeStyle=orthogonalEdgeStyle;rounded=0;orthogonalLoop=1;jettySize=auto;html=1;entryX=0;entryY=0.75;entryDx=0;entryDy=0;" edge="1" parent="1" source="LJ6CT2J7k7fD3QJaMvCB-50" target="LJ6CT2J7k7fD3QJaMvCB-40">
          <mxGeometry relative="1" as="geometry" />
        </mxCell>
        <mxCell id="LJ6CT2J7k7fD3QJaMvCB-50" value="" style="rounded=1;whiteSpace=wrap;html=1;fillColor=#f5f5f5;strokeColor=#666666;gradientColor=#b3b3b3;" vertex="1" parent="1">
          <mxGeometry x="400" y="290.58" width="120" height="20" as="geometry" />
        </mxCell>
        <mxCell id="LJ6CT2J7k7fD3QJaMvCB-51" value="" style="rounded=1;whiteSpace=wrap;html=1;fillColor=#f5f5f5;strokeColor=#666666;gradientColor=#b3b3b3;" vertex="1" parent="1">
          <mxGeometry x="400" y="440" width="120" height="20" as="geometry" />
        </mxCell>
        <mxCell id="LJ6CT2J7k7fD3QJaMvCB-52" value="" style="rounded=1;whiteSpace=wrap;html=1;fillColor=#f5f5f5;strokeColor=#666666;gradientColor=#b3b3b3;" vertex="1" parent="1">
          <mxGeometry x="400" y="500" width="120" height="20" as="geometry" />
        </mxCell>
        <mxCell id="LJ6CT2J7k7fD3QJaMvCB-53" value="" style="rounded=1;whiteSpace=wrap;html=1;fillColor=#f5f5f5;strokeColor=#666666;gradientColor=#b3b3b3;" vertex="1" parent="1">
          <mxGeometry x="400" y="390" width="120" height="20" as="geometry" />
        </mxCell>
        <mxCell id="LJ6CT2J7k7fD3QJaMvCB-55" value="" style="rounded=1;whiteSpace=wrap;html=1;fillColor=#ffcd28;strokeColor=#d79b00;gradientColor=#ffa500;" vertex="1" parent="1">
          <mxGeometry x="570" y="170" width="120" height="20" as="geometry" />
        </mxCell>
        <mxCell id="LJ6CT2J7k7fD3QJaMvCB-56" value="" style="rounded=1;whiteSpace=wrap;html=1;fillColor=#ffcd28;strokeColor=#d79b00;gradientColor=#ffa500;" vertex="1" parent="1">
          <mxGeometry x="570" y="320" width="120" height="20" as="geometry" />
        </mxCell>
        <mxCell id="LJ6CT2J7k7fD3QJaMvCB-57" value="" style="rounded=1;whiteSpace=wrap;html=1;fillColor=#ffcd28;strokeColor=#d79b00;gradientColor=#ffa500;" vertex="1" parent="1">
          <mxGeometry x="570" y="450" width="120" height="20" as="geometry" />
        </mxCell>
        <mxCell id="LJ6CT2J7k7fD3QJaMvCB-59" value="&lt;b&gt;crm_sales_details&lt;/b&gt;" style="text;html=1;align=center;verticalAlign=middle;whiteSpace=wrap;rounded=0;" vertex="1" parent="1">
          <mxGeometry x="430" y="165" width="60" height="30" as="geometry" />
        </mxCell>
        <mxCell id="LJ6CT2J7k7fD3QJaMvCB-60" value="&lt;b&gt;crm_cust_info&lt;/b&gt;" style="text;html=1;align=center;verticalAlign=middle;whiteSpace=wrap;rounded=0;" vertex="1" parent="1">
          <mxGeometry x="430" y="225" width="60" height="30" as="geometry" />
        </mxCell>
        <mxCell id="LJ6CT2J7k7fD3QJaMvCB-61" value="&lt;b&gt;crm_prd_info&lt;/b&gt;" style="text;html=1;align=center;verticalAlign=middle;whiteSpace=wrap;rounded=0;" vertex="1" parent="1">
          <mxGeometry x="430" y="285.58" width="60" height="30" as="geometry" />
        </mxCell>
        <mxCell id="LJ6CT2J7k7fD3QJaMvCB-62" value="&lt;b&gt;erp_cust_az12&lt;/b&gt;" style="text;html=1;align=center;verticalAlign=middle;whiteSpace=wrap;rounded=0;" vertex="1" parent="1">
          <mxGeometry x="430" y="385" width="60" height="30" as="geometry" />
        </mxCell>
        <mxCell id="LJ6CT2J7k7fD3QJaMvCB-63" value="&lt;b&gt;erp_loc_a101&lt;/b&gt;" style="text;html=1;align=center;verticalAlign=middle;whiteSpace=wrap;rounded=0;" vertex="1" parent="1">
          <mxGeometry x="430" y="435" width="60" height="30" as="geometry" />
        </mxCell>
        <mxCell id="LJ6CT2J7k7fD3QJaMvCB-64" value="&lt;b&gt;erp_px_cat_g1v2&lt;/b&gt;" style="text;html=1;align=center;verticalAlign=middle;whiteSpace=wrap;rounded=0;" vertex="1" parent="1">
          <mxGeometry x="425" y="495" width="60" height="30" as="geometry" />
        </mxCell>
        <mxCell id="LJ6CT2J7k7fD3QJaMvCB-67" style="edgeStyle=orthogonalEdgeStyle;rounded=0;orthogonalLoop=1;jettySize=auto;html=1;entryX=-0.02;entryY=0.144;entryDx=0;entryDy=0;entryPerimeter=0;" edge="1" parent="1" source="LJ6CT2J7k7fD3QJaMvCB-12" target="LJ6CT2J7k7fD3QJaMvCB-39">
          <mxGeometry relative="1" as="geometry" />
        </mxCell>
        <mxCell id="LJ6CT2J7k7fD3QJaMvCB-68" style="edgeStyle=orthogonalEdgeStyle;rounded=0;orthogonalLoop=1;jettySize=auto;html=1;entryX=-0.003;entryY=0.268;entryDx=0;entryDy=0;entryPerimeter=0;" edge="1" parent="1" source="LJ6CT2J7k7fD3QJaMvCB-13" target="LJ6CT2J7k7fD3QJaMvCB-39">
          <mxGeometry relative="1" as="geometry" />
        </mxCell>
        <mxCell id="LJ6CT2J7k7fD3QJaMvCB-69" style="edgeStyle=orthogonalEdgeStyle;rounded=0;orthogonalLoop=1;jettySize=auto;html=1;entryX=-0.014;entryY=0.401;entryDx=0;entryDy=0;entryPerimeter=0;" edge="1" parent="1" source="LJ6CT2J7k7fD3QJaMvCB-14" target="LJ6CT2J7k7fD3QJaMvCB-39">
          <mxGeometry relative="1" as="geometry" />
        </mxCell>
        <mxCell id="LJ6CT2J7k7fD3QJaMvCB-70" style="edgeStyle=orthogonalEdgeStyle;rounded=0;orthogonalLoop=1;jettySize=auto;html=1;entryX=-0.014;entryY=0.622;entryDx=0;entryDy=0;entryPerimeter=0;" edge="1" parent="1" source="LJ6CT2J7k7fD3QJaMvCB-15" target="LJ6CT2J7k7fD3QJaMvCB-39">
          <mxGeometry relative="1" as="geometry" />
        </mxCell>
        <mxCell id="LJ6CT2J7k7fD3QJaMvCB-71" style="edgeStyle=orthogonalEdgeStyle;rounded=0;orthogonalLoop=1;jettySize=auto;html=1;entryX=0.026;entryY=0.734;entryDx=0;entryDy=0;entryPerimeter=0;" edge="1" parent="1" source="LJ6CT2J7k7fD3QJaMvCB-16" target="LJ6CT2J7k7fD3QJaMvCB-39">
          <mxGeometry relative="1" as="geometry" />
        </mxCell>
        <mxCell id="LJ6CT2J7k7fD3QJaMvCB-72" style="edgeStyle=orthogonalEdgeStyle;rounded=0;orthogonalLoop=1;jettySize=auto;html=1;entryX=-0.009;entryY=0.867;entryDx=0;entryDy=0;entryPerimeter=0;" edge="1" parent="1" source="LJ6CT2J7k7fD3QJaMvCB-17" target="LJ6CT2J7k7fD3QJaMvCB-39">
          <mxGeometry relative="1" as="geometry" />
        </mxCell>
        <mxCell id="LJ6CT2J7k7fD3QJaMvCB-73" value="&lt;b&gt;fact_sales&lt;/b&gt;" style="text;html=1;align=center;verticalAlign=middle;whiteSpace=wrap;rounded=0;" vertex="1" parent="1">
          <mxGeometry x="600" y="165" width="60" height="30" as="geometry" />
        </mxCell>
        <mxCell id="LJ6CT2J7k7fD3QJaMvCB-74" value="&lt;b&gt;dim_customers&lt;/b&gt;" style="text;html=1;align=center;verticalAlign=middle;whiteSpace=wrap;rounded=0;" vertex="1" parent="1">
          <mxGeometry x="600" y="315" width="60" height="30" as="geometry" />
        </mxCell>
        <mxCell id="LJ6CT2J7k7fD3QJaMvCB-75" value="&lt;b&gt;dim_products&lt;/b&gt;" style="text;html=1;align=center;verticalAlign=middle;whiteSpace=wrap;rounded=0;" vertex="1" parent="1">
          <mxGeometry x="600" y="445" width="60" height="30" as="geometry" />
        </mxCell>
        <mxCell id="LJ6CT2J7k7fD3QJaMvCB-77" style="edgeStyle=orthogonalEdgeStyle;rounded=0;orthogonalLoop=1;jettySize=auto;html=1;entryX=0.006;entryY=0.135;entryDx=0;entryDy=0;entryPerimeter=0;" edge="1" parent="1" source="LJ6CT2J7k7fD3QJaMvCB-48" target="LJ6CT2J7k7fD3QJaMvCB-40">
          <mxGeometry relative="1" as="geometry" />
        </mxCell>
        <mxCell id="LJ6CT2J7k7fD3QJaMvCB-78" style="edgeStyle=orthogonalEdgeStyle;rounded=0;orthogonalLoop=1;jettySize=auto;html=1;entryX=0.071;entryY=0.467;entryDx=0;entryDy=0;entryPerimeter=0;" edge="1" parent="1" source="LJ6CT2J7k7fD3QJaMvCB-49" target="LJ6CT2J7k7fD3QJaMvCB-40">
          <mxGeometry relative="1" as="geometry" />
        </mxCell>
        <mxCell id="LJ6CT2J7k7fD3QJaMvCB-80" style="edgeStyle=orthogonalEdgeStyle;rounded=0;orthogonalLoop=1;jettySize=auto;html=1;entryX=0.034;entryY=0.467;entryDx=0;entryDy=0;entryPerimeter=0;" edge="1" parent="1" source="LJ6CT2J7k7fD3QJaMvCB-53" target="LJ6CT2J7k7fD3QJaMvCB-40">
          <mxGeometry relative="1" as="geometry" />
        </mxCell>
        <mxCell id="LJ6CT2J7k7fD3QJaMvCB-81" value="&lt;b&gt;&lt;font style=&quot;font-size: 14px;&quot;&gt;Data Flow&lt;/font&gt;&lt;/b&gt;" style="text;html=1;align=center;verticalAlign=middle;whiteSpace=wrap;rounded=0;" vertex="1" parent="1">
          <mxGeometry x="260" y="10" width="220" height="50" as="geometry" />
        </mxCell>
      </root>
    </mxGraphModel>
  </diagram>
</mxfile>
